<svg id="visual" viewBox="0 0 900 600" width="900" height="600" xmlns="http://www.w3.org/2000/svg" xmlns:xlink="http://www.w3.org/1999/xlink" version="1.1"><path d="M0 73L25 67C50 61 100 49 150 51C200 53 250 69 300 75C350 81 400 77 450 70C500 63 550 53 600 49C650 45 700 47 750 54C800 61 850 73 875 79L900 85L900 0L875 0C850 0 800 0 750 0C700 0 650 0 600 0C550 0 500 0 450 0C400 0 350 0 300 0C250 0 200 0 150 0C100 0 50 0 25 0L0 0Z" fill="#fef2f4"></path><path d="M0 229L25 233C50 237 100 245 150 253C200 261 250 269 300 261C350 253 400 229 450 241C500 253 550 301 600 294C650 287 700 225 750 212C800 199 850 235 875 253L900 271L900 83L875 77C850 71 800 59 750 52C700 45 650 43 600 47C550 51 500 61 450 68C400 75 350 79 300 73C250 67 200 51 150 49C100 47 50 59 25 65L0 71Z" fill="#f7cad2"></path><path d="M0 451L25 434C50 417 100 383 150 381C200 379 250 409 300 417C350 425 400 411 450 414C500 417 550 437 600 431C650 425 700 393 750 383C800 373 850 385 875 391L900 397L900 269L875 251C850 233 800 197 750 210C700 223 650 285 600 292C550 299 500 251 450 239C400 227 350 251 300 259C250 267 200 259 150 251C100 243 50 235 25 231L0 227Z" fill="#eda2b1"></path><path d="M0 499L25 492C50 485 100 471 150 476C200 481 250 505 300 503C350 501 400 473 450 468C500 463 550 481 600 483C650 485 700 471 750 469C800 467 850 477 875 482L900 487L900 395L875 389C850 383 800 371 750 381C700 391 650 423 600 429C550 435 500 415 450 412C400 409 350 423 300 415C250 407 200 377 150 379C100 381 50 415 25 432L0 449Z" fill="#e07991"></path><path d="M0 601L25 601C50 601 100 601 150 601C200 601 250 601 300 601C350 601 400 601 450 601C500 601 550 601 600 601C650 601 700 601 750 601C800 601 850 601 875 601L900 601L900 485L875 480C850 475 800 465 750 467C700 469 650 483 600 481C550 479 500 461 450 466C400 471 350 499 300 501C250 503 200 479 150 474C100 469 50 483 25 490L0 497Z" fill="#d14d72"></path></svg>